<svg id="Capa_1" enable-background="new 0 0 512 512" height="512" viewBox="0 0 512 512" width="512" xmlns="http://www.w3.org/2000/svg"><g><path d="m189.778 322.222-10.605-10.606-45.778 45.779 10.605 10.605 10.605 10.605 45.779-45.778z" fill="#c0e1f0"/><path d="m139.822 342.914h64.74v14.998h-64.74z" fill="#8fc3d9" transform="matrix(.707 -.707 .707 .707 -197.346 224.392)"/><path d="m454.82 57.18c-35.31-35.31-84.06-57.18-137.82-57.18-107.52 0-195 87.48-195 195 0 53.76 21.87 102.51 57.18 137.82s84.06 57.18 137.82 57.18c107.52 0 195-87.48 195-195 0-53.76-21.87-102.51-57.18-137.82z" fill="#2d5177"/><path d="m512 195c0-53.76-21.87-102.51-57.18-137.82l-275.64 275.64c35.31 35.31 84.06 57.18 137.82 57.18 107.52 0 195-87.48 195-195z" fill="#32405d"/><path d="m433.618 78.382c-29.877-29.877-71.127-48.382-116.618-48.382-90.981 0-165 74.019-165 165 0 45.491 18.505 86.741 48.382 116.618s71.127 48.382 116.618 48.382c90.981 0 165-74.019 165-165 0-45.491-18.505-86.741-48.382-116.618z" fill="#edf9ff"/><path d="m482 195c0-45.491-18.505-86.741-48.382-116.618l-233.236 233.236c29.877 29.877 71.127 48.382 116.618 48.382 90.981 0 165-74.019 165-165z" fill="#c0e1f0"/><path d="m95.367 353-95.367 95.367 31.816 31.817 31.817 31.816 95.367-95.367v-63.633z" fill="#ff641a"/><path d="m159 416.633v-63.633l-127.184 127.184 31.817 31.816z" fill="#f03800"/><path d="m242 135h30v45h-30z" fill="#46688c"/><path d="m242 270h30v45h-30z" fill="#2d5177"/><path d="m362 75h30v45h-30z" fill="#46688c"/><path d="m362 270h30v45h-30z" fill="#2d5177"/><path d="m407 105h-75v75 105h90v-180z" fill="#ff641a"/><path d="m422 285v-180h-15l-75 75v105z" fill="#f03800"/><path d="m212 165v120h15 75v-75-45z" fill="#97de3d"/><path d="m302 210-75 75h75z" fill="#59c36a"/></g></svg>